# xmcd
#
# Track frame offsets:
#       150
#       9352
#       19265
#       29622
#       41670
#       52060
#       65622
#       77322
#       90975
#       100687
#       115415
#       127532
#
# Disc length: 1883 seconds
#
# Revision: 0
# Processed by: cddbd v1.5PL3 Copyright (c) Steve Scherf et al.
# Submitted via: CD-DA_X-Tractor v0.24
#
DISCID=8907590c
DTITLE=Loretta Lynn - The Best Of Loretta Lynn Vol. 2
DYEAR=2001
DGENRE=
TTITLE0=Wine, Women And Song
TTITLE1=Fist City
TTITLE2=You've Just Stepped In (From Stepping Out Of Me)
TTITLE3=As Soon As I Hang Up The Phone (with Conway Twitty)
TTITLE4=You're Lookin' At Country
TTITLE5=When The Tingle Becomes A Chill
TTITLE6=The Pill
TTITLE7=Somebody Somewhere (Don't Know What He's Missin' Tonight)
TTITLE8=Trouble In Paradise
TTITLE9=I Can't Feel You Anymore
TTITLE10=Out Of My Head And Back In My Bed
TTITLE11=I Lie
EXTD=
EXTT0=
EXTT1=
EXTT2=
EXTT3=
EXTT4=
EXTT5=
EXTT6=
EXTT7=
EXTT8=
EXTT9=
EXTT10=
EXTT11=
PLAYORDER=
